<svg version="1.1" id="Layer_1"
	xmlns="http://www.w3.org/2000/svg"
	xmlns:xlink="http://www.w3.org/1999/xlink" x="0px" y="0px" width="100%" viewBox="0 0 960 1024" enable-background="new 0 0 960 1024" xml:space="preserve">

	<path fill="#000000" opacity="1.000000" stroke="none" d="
M596.627197,229.335114 
	C632.685303,260.017944 653.009399,298.729492 658.355835,345.300171 
	C662.007019,377.104279 657.235535,408.001862 647.471985,438.266357 
	C633.272217,482.281891 610.568909,521.923035 584.943970,560.095581 
	C557.234253,601.373718 525.837219,639.834839 494.891968,678.645386 
	C489.568726,685.321655 481.845886,685.619995 476.577820,679.084229 
	C438.619537,631.992432 400.521118,584.987000 368.783264,533.306213 
	C347.519440,498.680908 329.529633,462.550354 319.124756,422.998444 
	C312.931122,399.454620 309.741333,375.470764 311.939880,351.295502 
	C316.717896,298.756805 338.994232,255.206970 381.981537,223.583069 
	C405.666138,206.159286 432.640594,196.568314 461.929016,193.503555 
	C497.218170,189.810913 531.383484,193.474167 563.823486,208.721802 
	C575.483643,214.202347 586.290894,221.064682 596.627197,229.335114 
M536.659729,220.948914 
	C512.083252,213.358826 487.007568,211.830414 461.617035,215.141342 
	C409.024750,221.999329 371.557831,249.990051 348.355530,297.280212 
	C329.879730,334.937012 329.238953,374.257263 339.044464,414.191040 
	C350.200958,459.626953 372.365356,499.980743 397.622162,538.819946 
	C419.808563,572.937622 444.770477,605.016113 470.099060,636.815552 
	C475.040863,643.019897 480.118103,649.116333 485.105194,655.228577 
	C487.593231,653.886353 488.654968,651.925842 489.987671,650.271545 
	C509.006714,626.662170 527.951111,602.990540 545.782104,578.461365 
	C577.107910,535.368103 605.922668,490.834961 624.112244,440.291138 
	C636.252686,406.555847 642.783691,371.876953 635.406250,336.359131 
	C623.804077,280.501465 592.584900,240.431213 536.659729,220.948914 
z"/>
	<path fill="#000000" opacity="1.000000" stroke="none" d="
M350.507202,740.417969 
	C379.642975,748.697998 408.977417,753.356506 438.736206,755.900940 
	C461.518890,757.848816 484.320496,758.235962 507.114594,757.491821 
	C526.880554,756.846497 546.571777,754.889526 566.182800,751.976074 
	C597.111450,747.381287 627.279297,740.138977 655.991028,727.600647 
	C672.867004,720.230957 688.960938,711.467163 701.280029,697.250549 
	C707.048523,690.593506 711.434143,683.187439 711.696960,674.026428 
	C711.993774,663.682983 707.273193,655.426941 700.580444,648.084900 
	C688.416016,634.740356 673.020935,626.183350 656.793884,618.957275 
	C636.480652,609.911682 615.244263,603.759583 593.511475,599.239929 
	C588.958984,598.293152 584.692322,596.935913 583.020264,591.947449 
	C581.713806,588.049805 582.153320,584.249573 584.906982,581.154724 
	C588.100098,577.565979 592.403076,576.936584 596.862305,578.006226 
	C607.216064,580.489685 617.619873,582.830078 627.840576,585.790466 
	C654.871826,593.620056 680.880554,603.856262 703.276367,621.409790 
	C718.009277,632.957153 729.745117,646.754761 732.689331,666.213013 
	C734.714172,679.594666 731.087830,691.622864 723.996582,702.769531 
	C716.807373,714.070007 706.923096,722.720825 695.990723,730.222046 
	C673.580261,745.598999 648.495422,754.969238 622.542053,762.101440 
	C586.786133,771.927490 550.254883,776.662598 513.233948,778.538940 
	C486.878540,779.874756 460.591888,779.426392 434.388306,777.066528 
	C388.603943,772.943176 343.731018,764.487854 301.567657,745.171692 
	C283.732452,737.000793 266.920105,727.068481 254.014847,711.919800 
	C230.479279,684.292969 232.647537,653.327881 259.277649,628.573975 
	C276.953033,612.143982 298.009247,601.647766 320.289032,593.274170 
	C337.144592,586.939209 354.456024,582.117371 372.071472,578.380676 
	C378.807220,576.951904 384.531891,579.848694 386.000732,585.528564 
	C387.696503,592.085938 384.397705,597.441223 377.080627,599.128784 
	C355.800140,604.036865 334.771545,609.734741 314.785370,618.698914 
	C298.752045,625.890198 283.399658,634.194885 271.217346,647.288452 
	C265.802765,653.107971 261.489227,659.559509 259.862061,667.498169 
	C257.960510,676.775513 260.723938,684.966980 266.012604,692.442688 
	C276.781891,707.665588 292.276154,716.718323 308.570221,724.659607 
	C321.927185,731.169312 335.846497,736.212891 350.507202,740.417969 
z"/>


	<path fill="#000000" opacity="1.000000" stroke="none" d="
M486.944214,257.829712 
	C535.907959,258.397766 578.444885,294.935333 586.398193,342.844635 
	C594.912964,394.136414 565.786072,442.212585 516.474243,458.259583 
	C458.546082,477.110443 395.639618,439.540253 384.745392,379.585907 
	C374.202942,321.567688 412.829376,267.509766 471.043732,258.935577 
	C476.131409,258.186249 481.270844,257.459900 486.944214,257.829712 
M410.419373,329.902710 
	C402.105347,351.056763 402.408722,372.035767 411.286560,393.010132 
	C425.101227,425.647980 461.667236,445.820557 496.427582,440.990326 
	C539.188293,435.048340 571.986694,394.209900 565.897217,349.684204 
	C560.604431,310.984436 526.667236,279.536957 487.677368,279.478882 
	C451.582947,279.425079 426.079559,296.699677 410.419373,329.902710 
z"/>
</svg>